<svg width="32" height="32" viewBox="0 0 32 32" fill="none" xmlns="http://www.w3.org/2000/svg">
  <!-- Laboratory Flask -->
  <path d="M12 4H20V8L24 20C24 22.2091 22.2091 24 20 24H12C9.79086 24 8 22.2091 8 20L12 8V4Z" fill="url(#gradient1)" stroke="#00d4ff" stroke-width="1.5" stroke-linecap="round" stroke-linejoin="round"/>
  
  <!-- Liquid with bubbles -->
  <path d="M10 18C10 18 11 16 13 16C15 16 16 18 16 18C16 18 17 16 19 16C21 16 22 18 22 18L23 20C23 21.1046 22.1046 22 21 22H11C9.89543 22 9 21.1046 9 20L10 18Z" fill="url(#gradient2)" opacity="0.8"/>
  
  <!-- Bubbles -->
  <circle cx="14" cy="19" r="1.5" fill="#00d4ff" opacity="0.6"/>
  <circle cx="18" cy="17" r="1" fill="#00d4ff" opacity="0.4"/>
  <circle cx="15" cy="21" r="0.8" fill="#8b5cf6" opacity="0.5"/>
  
  <!-- Cork/Cap -->
  <rect x="14" y="2" width="4" height="3" rx="1" fill="#7d8590"/>
  
  <defs>
    <linearGradient id="gradient1" x1="16" y1="4" x2="16" y2="24" gradientUnits="userSpaceOnUse">
      <stop stop-color="#161b22" stop-opacity="0.3"/>
      <stop offset="1" stop-color="#0d1117" stop-opacity="0.8"/>
    </linearGradient>
    <linearGradient id="gradient2" x1="16" y1="16" x2="16" y2="22" gradientUnits="userSpaceOnUse">
      <stop stop-color="#00d4ff" stop-opacity="0.6"/>
      <stop offset="1" stop-color="#8b5cf6" stop-opacity="0.4"/>
    </linearGradient>
  </defs>
</svg>
